<svg width="185" height="32" viewBox="0 0 185 32" fill="none" xmlns="http://www.w3.org/2000/svg">
<path d="M17.34 25L15.7663 20.6577H7.25657L5.68286 25H0.903429L9.06343 4.6H13.9303L22.1194 25H17.34ZM8.45143 17.3354H14.5714L11.5114 8.94228L8.45143 17.3354ZM32.4148 14.8874C32.1817 13.4594 31.2783 12.6434 29.588 12.6434C28.16 12.6434 27.2857 13.3137 27.2857 14.188C27.2857 15.2954 28.3057 15.4994 30.4331 15.9949C33.7263 16.6943 36.2617 17.1897 36.2617 20.5703C36.2617 23.776 33.872 25.3789 29.9668 25.3789C25.712 25.3789 23.2348 23.3389 23.0308 19.7543H26.7028C26.9651 21.5029 28.1308 22.4354 29.9085 22.4354C31.3365 22.4354 32.3274 21.9691 32.3274 20.7743C32.3274 19.696 31.5697 19.492 29.0051 18.9383C25.7703 18.2389 23.4388 17.6269 23.4388 14.3629C23.4388 11.2446 25.9451 9.81657 29.6171 9.81657C33.5514 9.81657 35.7663 11.536 36.116 14.8874H32.4148ZM45.1983 25.3789C40.5063 25.3789 37.6212 22.2023 37.6212 17.6269C37.6212 12.964 40.5937 9.81657 45.1692 9.81657C49.9486 9.81657 52.3966 13.0806 52.3966 17.8017V18.472H41.6429V18.5594C41.7886 20.8617 43.2749 22.2897 45.1692 22.2897C46.5097 22.2897 47.7046 21.7069 48.2583 20.2206H52.3092C51.4057 23.6303 48.7537 25.3789 45.1983 25.3789ZM41.7594 16.1114H48.4914C48.4332 14.1297 47.2383 12.7309 45.1983 12.7309C43.2749 12.7309 41.9926 14.0423 41.7594 16.1114ZM61.4921 25.3789C56.8001 25.3789 53.915 22.2023 53.915 17.6269C53.915 12.964 56.8875 9.81657 61.463 9.81657C66.2424 9.81657 68.6904 13.0806 68.6904 17.8017V18.472H57.9367V18.5594C58.0824 20.8617 59.5687 22.2897 61.463 22.2897C62.8035 22.2897 63.9984 21.7069 64.5521 20.2206H68.603C67.6995 23.6303 65.0475 25.3789 61.4921 25.3789ZM58.0533 16.1114H64.7853C64.727 14.1297 63.5321 12.7309 61.4921 12.7309C59.5687 12.7309 58.2864 14.0423 58.0533 16.1114ZM77.0574 25.3789C72.8316 25.3789 70.2088 22.144 70.2088 17.5103C70.2088 13.0223 72.8316 9.81657 77.0574 9.81657C79.0682 9.81657 81.0791 10.7783 81.8076 12.2937H81.8368V4.6H85.9459V25H81.8368V22.7269H81.8076C81.0499 24.3297 79.0391 25.3789 77.0574 25.3789ZM77.9899 13.1389C75.8042 13.1389 74.2596 14.8874 74.2596 17.5103C74.2596 20.308 75.8042 22.0566 77.9899 22.0566C80.2339 22.0566 81.7785 20.3371 81.7785 17.656V17.4811C81.7785 14.8583 80.2339 13.1389 77.9899 13.1389Z" fill="white" style="fill:white;fill-opacity:1;"/>
<path d="M97.0891 4.6H99.0417V25H97.0891V4.6ZM111.174 10.108C114.7 10.108 116.653 12.5269 116.653 16.3446V25H114.788V16.3446C114.788 13.4886 113.33 11.7691 110.999 11.7691C108.026 11.7691 105.986 13.9257 105.986 17.3063V25H104.121V10.4286H105.986V13.6634C106.919 11.3029 108.813 10.108 111.174 10.108ZM129.435 14.9749C129.144 12.7309 127.745 11.6817 125.413 11.6817C123.519 11.6817 121.974 12.556 121.974 14.1297C121.974 15.8783 123.402 16.1114 125.967 16.7526C129.085 17.5394 131.388 17.9766 131.388 20.9491C131.388 23.9217 129.056 25.3206 125.88 25.3206C122.149 25.3206 119.847 23.3097 119.643 19.9H121.479C121.654 22.3189 123.198 23.7469 125.909 23.7469C127.89 23.7469 129.581 22.9891 129.581 21.0366C129.581 19.3171 128.328 19.0257 125.588 18.3263C122.528 17.5686 120.168 17.1897 120.168 14.2754C120.168 11.2154 122.703 10.108 125.472 10.108C128.794 10.108 130.834 11.7109 131.213 14.9749H129.435ZM134.397 7.456V4.6H136.729V7.456H134.397ZM134.631 25V10.4286H136.496V25H134.631ZM151.891 10.4286H153.757V25.1749C153.757 28.7303 150.93 31.12 146.879 31.12C143.09 31.12 140.351 28.9343 140.059 25.7869H142.099C142.391 27.9726 144.256 29.5171 146.966 29.5171C149.822 29.5171 151.891 27.9434 151.891 25.1749V21.94H151.862C151.105 23.572 149.21 24.7377 146.704 24.7377C142.537 24.7377 139.71 21.5903 139.71 17.3646C139.71 13.1097 142.537 10.108 146.646 10.108C149.239 10.108 151.046 11.3611 151.862 12.9931H151.891V10.4286ZM146.791 23.1349C149.706 23.1349 152.008 20.9491 152.037 17.452V17.1023C152.037 13.78 149.735 11.7109 146.791 11.7109C143.615 11.7109 141.517 14.0131 141.517 17.3354C141.517 20.6577 143.615 23.1349 146.791 23.1349ZM165.25 10.108C168.776 10.108 170.729 12.5269 170.729 16.3446V25H168.863V16.3446C168.863 13.4886 167.406 11.7691 165.075 11.7691C162.102 11.7691 160.062 13.9257 160.062 17.3063V25H158.197V4.6H160.062V13.6634C160.995 11.3029 162.889 10.108 165.25 10.108ZM183.606 12.0314H177.748V20.4246C177.748 22.4063 178.914 23.572 180.896 23.572C181.682 23.572 182.528 23.4263 183.402 22.96V24.6794C182.732 25.0291 181.886 25.2331 180.896 25.2331C177.865 25.2331 175.883 23.3389 175.883 20.4246V12.0314H172.765V10.4286H173.318C175.329 10.4286 175.883 9.93314 175.883 8.18457V5.76571H177.748V10.4286H183.606V12.0314Z" fill="#7D7D7D" style="fill:#7D7D7D;fill:color(display-p3 0.4900 0.4900 0.4900);fill-opacity:1;"/>
</svg>
